. 
 
http://www.torrenting.com          :     Once & For all ;)


               www . Torrenting . Com 

(((((((((((((= Enjoy No RAR releases =))))))))))))))))))))


...................................NFO:....................................

.ooooo oooo   oooo oooooooo8 oooooooooo  o88   oooooooooo       o      ooooo       
 888   8888o  88 888         888    888 oooo   888    888     888      888        
 888   88 888o88  888oooooo  888oooo88   888   888oooo88     8  88     888        
 888   88   8888         888 888         888   888  88o     8oooo88    888      o 
o888o o88o    88 o88oooo888 o888o       o888o o888o  88o8 o88o  o888o o888ooooo88 

 
TITLE: 

Alvin and the Chipmunks Chipwrecked 2011 R5 CAM AUDiO XViD - INSPiRAL

IMDB: 
 
http://www.imdb.com/title/tt1615918/


SOURCES:

VIDEO - Alvin And The Chipmukns Chipwrecked R5 DVDR
AUDIO - Alvin.3.2011.R5.XviD-BiDA
SUBS  - None Add

STATS:

Video
ID                               : 0
Format                           : MPEG-4 Visual
Format profile                   : Advanced Simple@L5
Format settings, BVOP            : 2
Format settings, QPel            : No
Format settings, GMC             : No warppoints
Format settings, Matrix          : Default (MPEG)
Muxing mode                      : Packed bitstream
Codec ID                         : XVID
Codec ID/Hint                    : XviD
Duration                         : 1h 23mn
Bit rate                         : 2 231 Kbps
Width                            : 720 pixels
Height                           : 384 pixels
Display aspect ratio             : 1.875
Frame rate                       : 25.000 fps
Color space                      : YUV
Chroma subsampling               : 4:2:0
Bit depth                        : 8 bits
Scan type                        : Progressive
Compression mode                 : Lossy
Bits/(Pixel*Frame)               : 0.323
Stream size                      : 1.30 GiB (94%)
Writing library                  : XviD 64

Audio
ID                               : 1
Format                           : MPEG Audio
Format version                   : Version 1
Format profile                   : Layer 3
Codec ID                         : 55
Codec ID/Hint                    : MP3
Duration                         : 1h 23mn
Bit rate mode                    : Constant
Bit rate                         : 128 Kbps
Channel(s)                       : 2 channels
Sampling rate                    : 44.1 KHz
Compression mode                 : Lossy
Stream size                      : 76.6 MiB (5%)
Alignment                        : Split accross interleaves
Interleave, duration             : 40 ms (1.00 video frame)
Interleave, preload duration     : 500 ms
Writing library                  : LAME3.98.4


NOTES:

Ok here we go we our take on this flick .....
The russian dvdr was pretty nice,looked a tad dull and need some more life givn to it,audio on it was russian so 
cam audio was needed and for that we took Bida's sync'd audio ,thanks :)
Audio was ok for cam but had the normal cam audio issues ....
Workdone ...took the dvdr and made a script to crop,reszie,heavy noise and sharpness...droppped that into vdub and just
slightly tweaked the brightness,contrast and chroma.
Audio we stripped and dropped that into AA and remastered the audio ...changing the EQ bands and also used a hiss removal
filter and then remuxed.


SCREENS:

[IMG]http://i.imgur.com/jNY32.png[/IMG]
[IMG]http://i.imgur.com/DIHPJ.png[/IMG]
[IMG]http://i.imgur.com/m6l4o.png[/IMG]
[IMG]http://i.imgur.com/mkeLN.png[/IMG]
[IMG]http://i.imgur.com/not2t.png[/IMG]
[IMG]http://i.imgur.com/KkznJ.png[/IMG]
[IMG]http://i.imgur.com/qgteV.png[/IMG]


GREETZ: 

Past,Present and Future